<?xml version="1.0" encoding="iso-8859-1"?>
<!-- Generator: Adobe Illustrator 16.0.0, SVG Export Plug-In . SVG Version: 6.00 Build 0)  -->
<!DOCTYPE svg PUBLIC "-//W3C//DTD SVG 1.1//EN" "http://www.w3.org/Graphics/SVG/1.1/DTD/svg11.dtd">
<svg version="1.1" id="Capa_1" xmlns="http://www.w3.org/2000/svg" xmlns:xlink="http://www.w3.org/1999/xlink" x="0px" y="0px"
	 width="32px" height="32px" viewBox="0 0 32 32" style="enable-background:new 0 0 32 32;" xml:space="preserve">
<g>
	<g>
		<path d="M24.74,0H7.26C5.187,0,3.5,1.794,3.5,4v24c0,2.206,1.687,4,3.76,4h17.48c2.072,0,3.76-1.794,3.76-4V4
			C28.5,1.794,26.812,0,24.74,0z M16,30.812c-0.725,0-1.313-0.586-1.313-1.312s0.587-1.312,1.313-1.312
			c0.727,0,1.312,0.586,1.312,1.312S16.725,30.812,16,30.812z M26.5,25c0,1.104-0.79,2-1.76,2H7.26c-0.97,0-1.76-0.896-1.76-2V4
			c0-1.103,0.79-2,1.76-2h17.48c0.97,0,1.76,0.897,1.76,2V25z"/>
		<path d="M20.177,13.625C20.08,13.527,20,13.335,20,13.198V10.76c0-0.138-0.111-0.25-0.25-0.25h-1.281
			c-0.138,0-0.25,0.112-0.25,0.25v0.656c0,0.138-0.08,0.17-0.177,0.073l-1.865-1.865c-0.097-0.097-0.256-0.097-0.354,0l-5.646,5.646
			c-0.097,0.097-0.064,0.177,0.073,0.177h1.5c0.138,0,0.25,0.112,0.25,0.25v4.5c0,0.138,0.112,0.25,0.25,0.25h7.5
			c0.139,0,0.25-0.112,0.25-0.25v-4.5c0-0.138,0.111-0.25,0.25-0.25h1.5c0.139,0,0.17-0.08,0.073-0.177L20.177,13.625z"/>
	</g>
</g>
<g>
</g>
<g>
</g>
<g>
</g>
<g>
</g>
<g>
</g>
<g>
</g>
<g>
</g>
<g>
</g>
<g>
</g>
<g>
</g>
<g>
</g>
<g>
</g>
<g>
</g>
<g>
</g>
<g>
</g>
</svg>
