<svg width="30" height="30" viewBox="0 0 30 30" fill="none" xmlns="http://www.w3.org/2000/svg">
<path d="M15 -3.79086e-08C23.2841 -3.79086e-08 30 6.71588 30 15C30 23.2841 23.2841 30 15 30C6.7155 30 -3.79086e-08 23.2841 -3.79086e-08 15C-3.79086e-08 6.71588 6.7155 -3.79086e-08 15 -3.79086e-08ZM24.0255 19.9421L24.0206 10.2926L18.2719 14.2493L24.0255 19.9421ZM17.3258 14.7806L15.2798 16.1516C15.1928 16.2083 15.0919 16.2375 14.9933 16.2375C14.8935 16.2375 14.7945 16.2086 14.7075 16.152L12.6131 14.7401L6.68588 20.6044H23.3239L17.3258 14.7806ZM11.7221 14.139L5.98762 10.2727V19.9065L11.7221 14.139ZM14.9929 15.0881L23.3224 9.49275H6.69975L14.9929 15.0881Z" fill="#2F80ED"/>
<path d="M15 -3.79086e-08C23.2841 -3.79086e-08 30 6.71588 30 15C30 23.2841 23.2841 30 15 30C6.7155 30 -3.79086e-08 23.2841 -3.79086e-08 15C-3.79086e-08 6.71588 6.7155 -3.79086e-08 15 -3.79086e-08ZM24.0255 19.9421L24.0206 10.2926L18.2719 14.2493L24.0255 19.9421ZM17.3258 14.7806L15.2798 16.1516C15.1928 16.2083 15.0919 16.2375 14.9933 16.2375C14.8935 16.2375 14.7945 16.2086 14.7075 16.152L12.6131 14.7401L6.68588 20.6044H23.3239L17.3258 14.7806ZM11.7221 14.139L5.98762 10.2727V19.9065L11.7221 14.139ZM14.9929 15.0881L23.3224 9.49275H6.69975L14.9929 15.0881Z" fill="url(#paint0_linear)"/>
<defs>
<linearGradient id="paint0_linear" x2="1" gradientUnits="userSpaceOnUse" gradientTransform="translate(30) scale(30) rotate(90)">
<stop stop-color="#2F80ED"/>
<stop offset="1" stop-color="#2D9CDB"/>
</linearGradient>
</defs>
</svg>
