<svg width="30" height="30" viewBox="0 0 30 30" fill="none" xmlns="http://www.w3.org/2000/svg">
<path d="M15 30C6.7155 30 0 23.2845 0 15C0 6.7155 6.7155 0 15 0C23.2845 0 30 6.7155 30 15C30 23.2845 23.2845 30 15 30ZM18.1245 16.875C17.31 17.5305 16.671 18.372 16.2645 19.335C13.743 18.225 11.775 16.257 10.653 13.821C11.628 13.329 12.468 12.69 13.1145 11.8875C12.9495 10.0695 12.012 8.5125 10.641 7.512C8.8125 8.1735 7.539 9.8715 7.4985 11.871C7.6365 17.5725 12.1275 22.179 17.7645 22.4985C19.89 22.473 21.684 21.21 22.485 19.4085C21.486 17.988 19.929 17.0505 18.147 16.8765L18.1245 16.875Z" fill="#2F80ED"/>
<path d="M15 30C6.7155 30 0 23.2845 0 15C0 6.7155 6.7155 0 15 0C23.2845 0 30 6.7155 30 15C30 23.2845 23.2845 30 15 30ZM18.1245 16.875C17.31 17.5305 16.671 18.372 16.2645 19.335C13.743 18.225 11.775 16.257 10.653 13.821C11.628 13.329 12.468 12.69 13.1145 11.8875C12.9495 10.0695 12.012 8.5125 10.641 7.512C8.8125 8.1735 7.539 9.8715 7.4985 11.871C7.6365 17.5725 12.1275 22.179 17.7645 22.4985C19.89 22.473 21.684 21.21 22.485 19.4085C21.486 17.988 19.929 17.0505 18.147 16.8765L18.1245 16.875Z" fill="url(#paint0_linear)"/>
<defs>
<linearGradient id="paint0_linear" x2="1" gradientUnits="userSpaceOnUse" gradientTransform="translate(30) scale(30) rotate(90)">
<stop stop-color="#2F80ED"/>
<stop offset="1" stop-color="#2D9CDB"/>
</linearGradient>
</defs>
</svg>
