<svg width="30" height="30" viewBox="0 0 30 30" fill="none" xmlns="http://www.w3.org/2000/svg">
<path fill-rule="evenodd" clip-rule="evenodd" d="M15 0C11.0218 0 7.20644 1.58035 4.3934 4.3934C1.58035 7.20644 0 11.0218 0 15C0 18.9782 1.58035 22.7936 4.3934 25.6066C7.20644 28.4196 11.0218 30 15 30C18.9782 30 22.7936 28.4196 25.6066 25.6066C28.4196 22.7936 30 18.9782 30 15C30 11.0218 28.4196 7.20644 25.6066 4.3934C22.7936 1.58035 18.9782 0 15 0V0ZM15 5.4C20.2948 5.4 24.6 9.70524 24.6 15C24.6 20.2949 20.2948 24.6 15 24.6C9.70517 24.6 5.4 20.2949 5.4 15C5.4 9.70524 9.70517 5.4 15 5.4ZM15 6.6C14.7224 6.6 14.4184 6.74027 14.0719 7.11562C13.7253 7.49098 13.3726 8.08861 13.0734 8.85469C12.7938 9.57097 12.5658 10.4398 12.3961 11.4H17.6039C17.4342 10.4398 17.2062 9.57097 16.9266 8.85469C16.6274 8.08861 16.2747 7.49098 15.9281 7.11562C15.5816 6.74027 15.2776 6.6 15 6.6ZM12.7195 6.91875C10.3693 7.57899 8.44449 9.23148 7.41562 11.4H11.168C11.351 10.2889 11.6187 9.28131 11.9555 8.41875C12.1774 7.85031 12.4326 7.35087 12.7195 6.91875ZM17.2805 6.91875C17.5674 7.35087 17.8226 7.85031 18.0445 8.41875C18.3813 9.28131 18.649 10.2889 18.832 11.4H22.5844C21.5555 9.23148 19.6307 7.57899 17.2805 6.91875ZM6.95156 12.6C6.72582 13.3606 6.6 14.1653 6.6 15C6.6 15.8356 6.7254 16.6388 6.95156 17.4H11.025C10.9443 16.6286 10.8867 15.8347 10.8867 15C10.8867 14.1653 10.9443 13.371 11.025 12.6H6.95156ZM12.2344 12.6C12.1486 13.3658 12.0867 14.161 12.0867 15C12.0867 15.8399 12.1484 16.6331 12.2344 17.4H17.7656C17.8516 16.6331 17.9133 15.8399 17.9133 15C17.9133 14.161 17.8514 13.3658 17.7656 12.6H12.2344ZM18.975 12.6C19.0557 13.371 19.1133 14.1653 19.1133 15C19.1133 15.8347 19.0557 16.6286 18.975 17.4H23.0484C23.2746 16.6388 23.4 15.8356 23.4 15C23.4 14.1653 23.2742 13.3606 23.0484 12.6H18.975ZM7.41797 18.6C8.44685 20.7665 10.369 22.4187 12.7172 23.0789C12.431 22.6474 12.177 22.1508 11.9555 21.5836C11.6187 20.7212 11.351 19.7117 11.168 18.6H7.41797ZM12.3984 18.6C12.5681 19.5599 12.794 20.4321 13.0734 21.1477C13.3726 21.9139 13.7253 22.5114 14.0719 22.8867C14.4184 23.2621 14.7224 23.4 15 23.4C15.2776 23.4 15.5816 23.2621 15.9281 22.8867C16.2747 22.5114 16.6274 21.9139 16.9266 21.1477C17.206 20.4321 17.4319 19.5599 17.6016 18.6H12.3984ZM18.832 18.6C18.649 19.7117 18.3813 20.7212 18.0445 21.5836C17.823 22.1508 17.569 22.6474 17.2828 23.0789C19.631 22.4187 21.5532 20.7665 22.582 18.6H18.832Z" fill="#2F80ED"/>
<path fill-rule="evenodd" clip-rule="evenodd" d="M15 0C11.0218 0 7.20644 1.58035 4.3934 4.3934C1.58035 7.20644 0 11.0218 0 15C0 18.9782 1.58035 22.7936 4.3934 25.6066C7.20644 28.4196 11.0218 30 15 30C18.9782 30 22.7936 28.4196 25.6066 25.6066C28.4196 22.7936 30 18.9782 30 15C30 11.0218 28.4196 7.20644 25.6066 4.3934C22.7936 1.58035 18.9782 0 15 0V0ZM15 5.4C20.2948 5.4 24.6 9.70524 24.6 15C24.6 20.2949 20.2948 24.6 15 24.6C9.70517 24.6 5.4 20.2949 5.4 15C5.4 9.70524 9.70517 5.4 15 5.4ZM15 6.6C14.7224 6.6 14.4184 6.74027 14.0719 7.11562C13.7253 7.49098 13.3726 8.08861 13.0734 8.85469C12.7938 9.57097 12.5658 10.4398 12.3961 11.4H17.6039C17.4342 10.4398 17.2062 9.57097 16.9266 8.85469C16.6274 8.08861 16.2747 7.49098 15.9281 7.11562C15.5816 6.74027 15.2776 6.6 15 6.6ZM12.7195 6.91875C10.3693 7.57899 8.44449 9.23148 7.41562 11.4H11.168C11.351 10.2889 11.6187 9.28131 11.9555 8.41875C12.1774 7.85031 12.4326 7.35087 12.7195 6.91875ZM17.2805 6.91875C17.5674 7.35087 17.8226 7.85031 18.0445 8.41875C18.3813 9.28131 18.649 10.2889 18.832 11.4H22.5844C21.5555 9.23148 19.6307 7.57899 17.2805 6.91875ZM6.95156 12.6C6.72582 13.3606 6.6 14.1653 6.6 15C6.6 15.8356 6.7254 16.6388 6.95156 17.4H11.025C10.9443 16.6286 10.8867 15.8347 10.8867 15C10.8867 14.1653 10.9443 13.371 11.025 12.6H6.95156ZM12.2344 12.6C12.1486 13.3658 12.0867 14.161 12.0867 15C12.0867 15.8399 12.1484 16.6331 12.2344 17.4H17.7656C17.8516 16.6331 17.9133 15.8399 17.9133 15C17.9133 14.161 17.8514 13.3658 17.7656 12.6H12.2344ZM18.975 12.6C19.0557 13.371 19.1133 14.1653 19.1133 15C19.1133 15.8347 19.0557 16.6286 18.975 17.4H23.0484C23.2746 16.6388 23.4 15.8356 23.4 15C23.4 14.1653 23.2742 13.3606 23.0484 12.6H18.975ZM7.41797 18.6C8.44685 20.7665 10.369 22.4187 12.7172 23.0789C12.431 22.6474 12.177 22.1508 11.9555 21.5836C11.6187 20.7212 11.351 19.7117 11.168 18.6H7.41797ZM12.3984 18.6C12.5681 19.5599 12.794 20.4321 13.0734 21.1477C13.3726 21.9139 13.7253 22.5114 14.0719 22.8867C14.4184 23.2621 14.7224 23.4 15 23.4C15.2776 23.4 15.5816 23.2621 15.9281 22.8867C16.2747 22.5114 16.6274 21.9139 16.9266 21.1477C17.206 20.4321 17.4319 19.5599 17.6016 18.6H12.3984ZM18.832 18.6C18.649 19.7117 18.3813 20.7212 18.0445 21.5836C17.823 22.1508 17.569 22.6474 17.2828 23.0789C19.631 22.4187 21.5532 20.7665 22.582 18.6H18.832Z" fill="url(#paint0_linear)"/>
<defs>
<linearGradient id="paint0_linear" x2="1" gradientUnits="userSpaceOnUse" gradientTransform="translate(30) scale(30) rotate(90)">
<stop stop-color="#2F80ED"/>
<stop offset="1" stop-color="#2D9CDB"/>
</linearGradient>
</defs>
</svg>
