<?xml version="1.0" encoding="iso-8859-1"?>
<!-- Generator: Adobe Illustrator 19.0.0, SVG Export Plug-In . SVG Version: 6.00 Build 0)  -->
<svg version="1.1" id="Capa_1" xmlns="http://www.w3.org/2000/svg" xmlns:xlink="http://www.w3.org/1999/xlink" x="0px" y="0px"
	 viewBox="0 0 480 480" style="enable-background:new 0 0 480 480;" xml:space="preserve">
<g>
	<g>
		<g>
			<path d="M216,456h48c4.418,0,8-3.582,8-8s-3.582-8-8-8h-48c-4.418,0-8,3.582-8,8S211.582,456,216,456z"/>
			<path d="M200,128h-80v80h80V128z M184,192h-48v-48h48V192z"/>
			<rect x="144" y="152" width="32" height="32"/>
			<path d="M120,352h80v-80h-80V352z M136,288h48v48h-48V288z"/>
			<rect x="144" y="296" width="32" height="32"/>
			<rect x="304" y="296" width="32" height="32"/>
			<rect x="208" y="336" width="64" height="16"/>
			<rect x="248" y="304" width="16" height="24"/>
			<rect x="232" y="280" width="32" height="16"/>
			<polygon points="272,192 232,192 232,184 280,184 280,128 240,128 240,144 264,144 264,168 256,168 256,152 240,152 240,168 
				232,168 232,128 216,128 216,208 272,208 			"/>
			<rect x="288" y="128" width="72" height="16"/>
			<rect x="312" y="152" width="16" height="24"/>
			<rect x="208" y="312" width="24" height="16"/>
			<path d="M392,232V40c-0.026-22.08-17.92-39.974-40-40H128c-22.08,0.026-39.974,17.92-40,40v192H0v16h88v192
				c0.026,22.08,17.92,39.974,40,40h224c22.08-0.026,39.974-17.92,40-40V248h88v-16H392z M376,440c0,13.255-10.745,24-24,24H128
				c-13.255,0-24-10.745-24-24v-8h272V440z M376,416H104V248h16v16h16v-16h24v16h40v-16h16v24h-8v32h16v-32h24v-16h-16v-8h56v8h16
				v-8h8v24h-32v80h80v-80h-32v-24h16v16h16v-16h16V416z M344,288v48h-48v-48H344z M376,232h-16v-80h-16v80h-40v-8h32v-16h-8v-24
				h-16v24h-8v-16h-16v40h-16v-16h-16v16h-24v-16h-16v16h-24v-16h-16v16h-16v-16h-16v16h-8v-8h-16v8h-16V64h272V232z M376,48H104v-8
				c0-13.255,10.745-24,24-24h224c13.255,0,24,10.745,24,24V48z"/>
			<rect x="264" y="256" width="16" height="16"/>
			<rect x="288" y="152" width="16" height="16"/>
			<path d="M288,24h-48c-4.418,0-8,3.582-8,8s3.582,8,8,8h48c4.418,0,8-3.582,8-8S292.418,24,288,24z"/>
			<path d="M208,24h-16c-4.418,0-8,3.582-8,8s3.582,8,8,8h16c4.418,0,8-3.582,8-8S212.418,24,208,24z"/>
		</g>
	</g>
</g>
<g>
</g>
<g>
</g>
<g>
</g>
<g>
</g>
<g>
</g>
<g>
</g>
<g>
</g>
<g>
</g>
<g>
</g>
<g>
</g>
<g>
</g>
<g>
</g>
<g>
</g>
<g>
</g>
<g>
</g>
</svg>
