<svg width="25" height="25" viewBox="0 0 25 25" fill="none" xmlns="http://www.w3.org/2000/svg">
<path d="M0 11.3636H11.3635V-3.79574e-08H0V11.3636ZM2.27253 2.2729H9.09074V9.07344H2.27253V2.2729Z" transform="translate(0 13.6357)" fill="white" fill-opacity="0.8"/>
<path d="M2.27265 0H0V2.27296H2.27265V0Z" transform="translate(4.5459 18.1812)" fill="white" fill-opacity="0.8"/>
<path d="M2.27321 0H0V2.27271H2.27321V0Z" transform="translate(18.1816 22.7271)" fill="white" fill-opacity="0.8"/>
<path d="M2.27315 0H0V2.27271H2.27315V0Z" transform="translate(22.7275 22.7271)" fill="white" fill-opacity="0.8"/>
<path d="M9.09093 2.2729H6.8184V-3.79574e-08H-3.79575e-08V11.3636H2.2729V4.54543H4.54525V6.81839H11.3636V-3.79574e-08H9.09093V2.2729Z" transform="translate(13.6367 13.6357)" fill="white" fill-opacity="0.8"/>
<path d="M0 11.3637H11.3635V0H0V11.3637ZM2.27253 2.27253H9.09074V9.09072H2.27253V2.27253Z" fill="white" fill-opacity="0.8"/>
<path d="M2.27265 0H0V2.27284H2.27265V0Z" transform="translate(4.5459 4.54541)" fill="white" fill-opacity="0.8"/>
<path d="M-3.79575e-08 0V11.3637H11.3638V0H-3.79575e-08ZM9.09093 9.09072H2.2729V2.27253H9.09093V9.09072V9.09072Z" transform="translate(13.6367)" fill="white" fill-opacity="0.8"/>
<path d="M2.27321 0H0V2.27284H2.27321V0Z" transform="translate(18.1816 4.54541)" fill="white" fill-opacity="0.8"/>
</svg>
