<svg width="30" height="30" viewBox="0 0 30 30" fill="none" xmlns="http://www.w3.org/2000/svg">
<path d="M15 0C11.0218 0 7.20644 1.58035 4.3934 4.3934C1.58035 7.20644 0 11.0218 0 15C0 18.9782 1.58035 22.7936 4.3934 25.6066C7.20644 28.4196 11.0218 30 15 30C18.9782 30 22.7936 28.4196 25.6066 25.6066C28.4196 22.7936 30 18.9782 30 15C30 11.0218 28.4196 7.20644 25.6066 4.3934C22.7936 1.58035 18.9782 0 15 0V0ZM15 7.2C18.3066 7.2 21 9.8934 21 13.2C21 17.8018 16.624 22.0245 15.4242 23.2242L15 23.6484L14.5758 23.2242C13.3745 22.0229 9 17.7898 9 13.2C9 9.8934 11.6934 7.2 15 7.2ZM15 8.4C12.3419 8.4 10.2 10.5419 10.2 13.2C10.2 16.7251 13.5504 20.388 15 21.8742C16.4508 20.3885 19.8 16.7386 19.8 13.2C19.8 10.5419 17.6581 8.4 15 8.4ZM15 10.8C16.3184 10.8 17.4 11.8816 17.4 13.2C17.4 14.5183 16.3184 15.6 15 15.6C13.6816 15.6 12.6 14.5183 12.6 13.2C12.6 11.8816 13.6816 10.8 15 10.8ZM15 12C14.3302 12 13.8 12.5302 13.8 13.2C13.8 13.8698 14.3302 14.4 15 14.4C15.6698 14.4 16.2 13.8698 16.2 13.2C16.2 12.5302 15.6698 12 15 12Z" fill="#2F80ED"/>
<path d="M15 0C11.0218 0 7.20644 1.58035 4.3934 4.3934C1.58035 7.20644 0 11.0218 0 15C0 18.9782 1.58035 22.7936 4.3934 25.6066C7.20644 28.4196 11.0218 30 15 30C18.9782 30 22.7936 28.4196 25.6066 25.6066C28.4196 22.7936 30 18.9782 30 15C30 11.0218 28.4196 7.20644 25.6066 4.3934C22.7936 1.58035 18.9782 0 15 0V0ZM15 7.2C18.3066 7.2 21 9.8934 21 13.2C21 17.8018 16.624 22.0245 15.4242 23.2242L15 23.6484L14.5758 23.2242C13.3745 22.0229 9 17.7898 9 13.2C9 9.8934 11.6934 7.2 15 7.2ZM15 8.4C12.3419 8.4 10.2 10.5419 10.2 13.2C10.2 16.7251 13.5504 20.388 15 21.8742C16.4508 20.3885 19.8 16.7386 19.8 13.2C19.8 10.5419 17.6581 8.4 15 8.4ZM15 10.8C16.3184 10.8 17.4 11.8816 17.4 13.2C17.4 14.5183 16.3184 15.6 15 15.6C13.6816 15.6 12.6 14.5183 12.6 13.2C12.6 11.8816 13.6816 10.8 15 10.8ZM15 12C14.3302 12 13.8 12.5302 13.8 13.2C13.8 13.8698 14.3302 14.4 15 14.4C15.6698 14.4 16.2 13.8698 16.2 13.2C16.2 12.5302 15.6698 12 15 12Z" fill="url(#paint0_linear)"/>
<defs>
<linearGradient id="paint0_linear" x2="1" gradientUnits="userSpaceOnUse" gradientTransform="translate(30) scale(30) rotate(90)">
<stop stop-color="#2F80ED"/>
<stop offset="1" stop-color="#2D9CDB"/>
</linearGradient>
</defs>
</svg>
