<svg width="30" height="30" viewBox="0 0 30 30" fill="none" xmlns="http://www.w3.org/2000/svg">
<circle cx="15" cy="15" r="15" fill="#00122A"/>
<rect width="10" height="10" transform="translate(4 7)" fill="#EDEDED"/>
<rect width="10" height="10" transform="translate(16 7)" fill="#EDEDED"/>
<rect width="6" height="6" transform="translate(6 9)" fill="#00122A"/>
<rect width="6" height="6" transform="translate(12 19)" fill="#00122A"/>
<rect width="2" height="2" transform="translate(8 11)" fill="#EDEDED"/>
<rect width="1" height="1" transform="translate(8 19)" fill="#EDEDED"/>
<rect width="1" height="1" transform="translate(8 20)" fill="#EDEDED"/>
<rect width="1" height="1" transform="translate(8 21)" fill="#EDEDED"/>
<rect width="1" height="1" transform="translate(9 21)" fill="#EDEDED"/>
<rect width="1" height="1" transform="translate(9 20)" fill="#EDEDED"/>
<rect width="1" height="1" transform="translate(9 19)" fill="#EDEDED"/>
<rect width="1" height="1" transform="translate(9 22)" fill="#EDEDED"/>
<rect width="1" height="1" transform="translate(10 22)" fill="#EDEDED"/>
<rect width="1" height="1" transform="translate(10 23)" fill="#EDEDED"/>
<rect width="1" height="1" transform="translate(11 23)" fill="#EDEDED"/>
<rect width="1" height="1" transform="translate(11 24)" fill="#EDEDED"/>
<rect width="1" height="1" transform="translate(13 24)" fill="#EDEDED"/>
<rect width="1" height="1" transform="translate(13 23)" fill="#EDEDED"/>
<rect width="1" height="1" transform="translate(16 23)" fill="#EDEDED"/>
<rect width="1" height="1" transform="translate(15 23)" fill="#EDEDED"/>
<rect width="1" height="1" transform="translate(14 23)" fill="#EDEDED"/>
<rect width="1" height="1" transform="translate(12 23)" fill="#EDEDED"/>
<rect width="1" height="1" transform="translate(17 23)" fill="#EDEDED"/>
<rect width="1" height="1" transform="translate(21 19)" fill="#EDEDED"/>
<rect width="1" height="1" transform="translate(21 20)" fill="#EDEDED"/>
<rect width="1" height="1" transform="translate(20 21)" fill="#EDEDED"/>
<rect width="1" height="1" transform="translate(20 20)" fill="#EDEDED"/>
<rect width="1" height="1" transform="translate(20 19)" fill="#EDEDED"/>
<rect width="1" height="1" transform="translate(21 21)" fill="#EDEDED"/>
<rect width="1" height="1" transform="translate(19 23)" fill="#EDEDED"/>
<rect width="1" height="1" transform="translate(17 24)" fill="#EDEDED"/>
<rect width="1" height="1" transform="translate(16 24)" fill="#EDEDED"/>
<rect width="1" height="1" transform="translate(18 23)" fill="#EDEDED"/>
<rect width="1" height="1" transform="translate(18 24)" fill="#EDEDED"/>
<rect width="1" height="1" transform="translate(20 22)" fill="#EDEDED"/>
<rect width="1" height="1" transform="translate(19 22)" fill="#EDEDED"/>
<rect width="1" height="1" transform="translate(14 24)" fill="#EDEDED"/>
<rect width="1" height="1" transform="translate(12 24)" fill="#EDEDED"/>
<rect width="1" height="1" transform="translate(15 24)" fill="#EDEDED"/>
<rect width="6" height="6" transform="translate(18 9)" fill="#00122A"/>
<rect width="2" height="2" transform="translate(20 11)" fill="#EDEDED"/>
</svg>
